<svg width="24" height="25" viewBox="0 0 24 25" fill="none" xmlns="http://www.w3.org/2000/svg">
<g clip-path="url(#clip0_176_538)">
<path d="M9 0.5H5C3.67392 0.5 2.40215 1.02678 1.46447 1.96447C0.526784 2.90215 0 4.17392 0 5.5L0 19.5C0 20.1566 0.129329 20.8068 0.380602 21.4134C0.631876 22.02 1.00017 22.5712 1.46447 23.0355C2.40215 23.9732 3.67392 24.5 5 24.5H14V5.5C14 4.84339 13.8707 4.19321 13.6194 3.58658C13.3681 2.97995 12.9998 2.42876 12.5355 1.96447C12.0712 1.50017 11.52 1.13188 10.9134 0.880602C10.3068 0.629329 9.65661 0.5 9 0.5V0.5ZM5 19.5H4C3.73478 19.5 3.48043 19.3946 3.29289 19.2071C3.10536 19.0196 3 18.7652 3 18.5C3 18.2348 3.10536 17.9804 3.29289 17.7929C3.48043 17.6054 3.73478 17.5 4 17.5H5C5.26522 17.5 5.51957 17.6054 5.70711 17.7929C5.89464 17.9804 6 18.2348 6 18.5C6 18.7652 5.89464 19.0196 5.70711 19.2071C5.51957 19.3946 5.26522 19.5 5 19.5ZM5 15.5H4C3.73478 15.5 3.48043 15.3946 3.29289 15.2071C3.10536 15.0196 3 14.7652 3 14.5C3 14.2348 3.10536 13.9804 3.29289 13.7929C3.48043 13.6054 3.73478 13.5 4 13.5H5C5.26522 13.5 5.51957 13.6054 5.70711 13.7929C5.89464 13.9804 6 14.2348 6 14.5C6 14.7652 5.89464 15.0196 5.70711 15.2071C5.51957 15.3946 5.26522 15.5 5 15.5ZM5 11.5H4C3.73478 11.5 3.48043 11.3946 3.29289 11.2071C3.10536 11.0196 3 10.7652 3 10.5C3 10.2348 3.10536 9.98043 3.29289 9.79289C3.48043 9.60536 3.73478 9.5 4 9.5H5C5.26522 9.5 5.51957 9.60536 5.70711 9.79289C5.89464 9.98043 6 10.2348 6 10.5C6 10.7652 5.89464 11.0196 5.70711 11.2071C5.51957 11.3946 5.26522 11.5 5 11.5ZM5 7.5H4C3.73478 7.5 3.48043 7.39464 3.29289 7.20711C3.10536 7.01957 3 6.76522 3 6.5C3 6.23478 3.10536 5.98043 3.29289 5.79289C3.48043 5.60536 3.73478 5.5 4 5.5H5C5.26522 5.5 5.51957 5.60536 5.70711 5.79289C5.89464 5.98043 6 6.23478 6 6.5C6 6.76522 5.89464 7.01957 5.70711 7.20711C5.51957 7.39464 5.26522 7.5 5 7.5ZM10 19.5H9C8.73478 19.5 8.48043 19.3946 8.29289 19.2071C8.10536 19.0196 8 18.7652 8 18.5C8 18.2348 8.10536 17.9804 8.29289 17.7929C8.48043 17.6054 8.73478 17.5 9 17.5H10C10.2652 17.5 10.5196 17.6054 10.7071 17.7929C10.8946 17.9804 11 18.2348 11 18.5C11 18.7652 10.8946 19.0196 10.7071 19.2071C10.5196 19.3946 10.2652 19.5 10 19.5ZM10 15.5H9C8.73478 15.5 8.48043 15.3946 8.29289 15.2071C8.10536 15.0196 8 14.7652 8 14.5C8 14.2348 8.10536 13.9804 8.29289 13.7929C8.48043 13.6054 8.73478 13.5 9 13.5H10C10.2652 13.5 10.5196 13.6054 10.7071 13.7929C10.8946 13.9804 11 14.2348 11 14.5C11 14.7652 10.8946 15.0196 10.7071 15.2071C10.5196 15.3946 10.2652 15.5 10 15.5ZM10 11.5H9C8.73478 11.5 8.48043 11.3946 8.29289 11.2071C8.10536 11.0196 8 10.7652 8 10.5C8 10.2348 8.10536 9.98043 8.29289 9.79289C8.48043 9.60536 8.73478 9.5 9 9.5H10C10.2652 9.5 10.5196 9.60536 10.7071 9.79289C10.8946 9.98043 11 10.2348 11 10.5C11 10.7652 10.8946 11.0196 10.7071 11.2071C10.5196 11.3946 10.2652 11.5 10 11.5ZM10 7.5H9C8.73478 7.5 8.48043 7.39464 8.29289 7.20711C8.10536 7.01957 8 6.76522 8 6.5C8 6.23478 8.10536 5.98043 8.29289 5.79289C8.48043 5.60536 8.73478 5.5 9 5.5H10C10.2652 5.5 10.5196 5.60536 10.7071 5.79289C10.8946 5.98043 11 6.23478 11 6.5C11 6.76522 10.8946 7.01957 10.7071 7.20711C10.5196 7.39464 10.2652 7.5 10 7.5ZM19 5.5H16V24.5H19C20.3256 24.4984 21.5964 23.9711 22.5338 23.0338C23.4711 22.0964 23.9984 20.8256 24 19.5V10.5C23.9984 9.17441 23.4711 7.90356 22.5338 6.96622C21.5964 6.02888 20.3256 5.50159 19 5.5ZM20 19.5C19.8022 19.5 19.6089 19.4414 19.4444 19.3315C19.28 19.2216 19.1518 19.0654 19.0761 18.8827C19.0004 18.7 18.9806 18.4989 19.0192 18.3049C19.0578 18.1109 19.153 17.9327 19.2929 17.7929C19.4327 17.653 19.6109 17.5578 19.8049 17.5192C19.9989 17.4806 20.2 17.5004 20.3827 17.5761C20.5654 17.6518 20.7216 17.78 20.8315 17.9444C20.9414 18.1089 21 18.3022 21 18.5C21 18.7652 20.8946 19.0196 20.7071 19.2071C20.5196 19.3946 20.2652 19.5 20 19.5ZM20 15.5C19.8022 15.5 19.6089 15.4414 19.4444 15.3315C19.28 15.2216 19.1518 15.0654 19.0761 14.8827C19.0004 14.7 18.9806 14.4989 19.0192 14.3049C19.0578 14.1109 19.153 13.9327 19.2929 13.7929C19.4327 13.653 19.6109 13.5578 19.8049 13.5192C19.9989 13.4806 20.2 13.5004 20.3827 13.5761C20.5654 13.6518 20.7216 13.78 20.8315 13.9444C20.9414 14.1089 21 14.3022 21 14.5C21 14.7652 20.8946 15.0196 20.7071 15.2071C20.5196 15.3946 20.2652 15.5 20 15.5ZM20 11.5C19.8022 11.5 19.6089 11.4414 19.4444 11.3315C19.28 11.2216 19.1518 11.0654 19.0761 10.8827C19.0004 10.7 18.9806 10.4989 19.0192 10.3049C19.0578 10.1109 19.153 9.93275 19.2929 9.79289C19.4327 9.65304 19.6109 9.5578 19.8049 9.51921C19.9989 9.48063 20.2 9.50043 20.3827 9.57612C20.5654 9.65181 20.7216 9.77998 20.8315 9.94443C20.9414 10.1089 21 10.3022 21 10.5C21 10.7652 20.8946 11.0196 20.7071 11.2071C20.5196 11.3946 20.2652 11.5 20 11.5Z" fill="#B8B8B8"/>
</g>
<defs>
<clipPath id="clip0_176_538">
<rect width="24" height="24" fill="white" transform="translate(0 0.5)"/>
</clipPath>
</defs>
</svg>
