<svg width="24" height="25" viewBox="0 0 24 25" fill="none" xmlns="http://www.w3.org/2000/svg">
<g clip-path="url(#clip0_104_2747)">
<path d="M13.4138 12.4999L23.7068 2.20692C23.8889 2.01832 23.9897 1.76571 23.9875 1.50352C23.9852 1.24132 23.88 0.990508 23.6946 0.8051C23.5092 0.619692 23.2584 0.514523 22.9962 0.512245C22.734 0.509966 22.4814 0.610761 22.2928 0.792919L11.9998 11.0859L1.70679 0.792919C1.51818 0.610761 1.26558 0.509966 1.00339 0.512245C0.741189 0.514523 0.490376 0.619692 0.304968 0.8051C0.11956 0.990508 0.0143908 1.24132 0.0121124 1.50352C0.00983399 1.76571 0.110628 2.01832 0.292787 2.20692L10.5858 12.4999L0.292787 22.7929C0.105315 22.9804 0 23.2348 0 23.4999C0 23.7651 0.105315 24.0194 0.292787 24.2069C0.480314 24.3944 0.734622 24.4997 0.999786 24.4997C1.26495 24.4997 1.51926 24.3944 1.70679 24.2069L11.9998 13.9139L22.2928 24.2069C22.4803 24.3944 22.7346 24.4997 22.9998 24.4997C23.265 24.4997 23.5193 24.3944 23.7068 24.2069C23.8943 24.0194 23.9996 23.7651 23.9996 23.4999C23.9996 23.2348 23.8943 22.9804 23.7068 22.7929L13.4138 12.4999Z" fill="white"/>
</g>
<defs>
<clipPath id="clip0_104_2747">
<rect width="24" height="24" fill="white" transform="translate(0 0.5)"/>
</clipPath>
</defs>
</svg>
