<svg width="24" height="25" viewBox="0 0 24 25" fill="none" xmlns="http://www.w3.org/2000/svg">
<g clip-path="url(#clip0_176_462)">
<path d="M12 15.4922C10.3432 15.4922 9 16.8353 9 18.4922V24.4922H15V18.4922C15 16.8353 13.6568 15.4922 12 15.4922Z" fill="#B8B8B8"/>
<path d="M17 18.4924V24.4924H21C22.6568 24.4924 24 23.1492 24 21.4924V12.3714C24.0002 11.8519 23.7983 11.3527 23.437 10.9794L14.939 1.79236C13.4396 0.170021 10.9089 0.0704117 9.28655 1.56985C9.20949 1.6411 9.13523 1.7153 9.06403 1.79236L0.581016 10.9764C0.208734 11.3512 -0.000140554 11.8581 7.09607e-08 12.3864V21.4924C7.09607e-08 23.1492 1.34316 24.4924 3 24.4924H6.99998V18.4924C7.01869 15.7656 9.22027 13.5388 11.8784 13.4747C14.6255 13.4084 16.9791 15.6731 17 18.4924Z" fill="#B8B8B8"/>
<path d="M12 15.4922C10.3432 15.4922 9 16.8353 9 18.4922V24.4922H15V18.4922C15 16.8353 13.6568 15.4922 12 15.4922Z" fill="#B8B8B8"/>
</g>
<defs>
<clipPath id="clip0_176_462">
<rect width="24" height="24" fill="white" transform="translate(0 0.5)"/>
</clipPath>
</defs>
</svg>
