<svg width="24" height="25" viewBox="0 0 24 25" fill="none" xmlns="http://www.w3.org/2000/svg">
<g clip-path="url(#clip0_176_647)">
<path d="M16.2432 11.2635C15.118 10.1382 13.5918 9.50595 12.0005 9.50586C10.4092 9.50577 8.88297 10.1378 7.75765 11.263C6.63234 12.3882 6.00009 13.9143 6 15.5057C5.99991 17.097 6.63197 18.6232 7.75715 19.7485L11.2642 23.1785C11.4609 23.3708 11.7251 23.4784 12.0002 23.4784C12.2752 23.4784 12.5394 23.3708 12.7362 23.1785L16.2432 19.7485C17.3683 18.6233 18.0004 17.0972 18.0004 15.506C18.0004 13.9148 17.3683 12.3887 16.2432 11.2635ZM12.0002 17.4935C11.6046 17.4935 11.2179 17.3762 10.889 17.1565C10.5601 16.9367 10.3038 16.6243 10.1524 16.2589C10.001 15.8934 9.96141 15.4913 10.0386 15.1033C10.1158 14.7154 10.3062 14.359 10.5859 14.0793C10.8656 13.7996 11.222 13.6091 11.61 13.5319C11.9979 13.4548 12.4001 13.4944 12.7655 13.6458C13.131 13.7971 13.4433 14.0535 13.6631 14.3824C13.8829 14.7113 14.0002 15.098 14.0002 15.4935C14.0002 16.0239 13.7894 16.5327 13.4144 16.9077C13.0393 17.2828 12.5306 17.4935 12.0002 17.4935Z" fill="#B8B8B8"/>
<path d="M21.8 6.07914L14.8 1.35514C13.9741 0.7938 12.9986 0.493652 12 0.493652C11.0014 0.493652 10.0259 0.7938 9.2 1.35514L2.2 6.07914C1.52172 6.53688 0.966334 7.1543 0.582708 7.87708C0.199083 8.59987 -0.00102096 9.40586 3.91707e-06 10.2241V19.5001C0.00159177 20.8257 0.528886 22.0966 1.46622 23.0339C2.40356 23.9713 3.67441 24.4986 5 24.5001H9.754L6.359 21.1791C5.60791 20.4389 5.01058 19.5575 4.60136 18.5856C4.19215 17.6136 3.97914 16.5704 3.97458 15.5159C3.97001 14.4613 4.17399 13.4163 4.57477 12.4408C4.97556 11.4654 5.56524 10.5788 6.3099 9.83213C7.05456 9.08543 7.93951 8.49332 8.91384 8.08986C9.88816 7.68641 10.9326 7.47957 11.9872 7.48124C13.0418 7.48292 14.0856 7.69307 15.0586 8.09962C16.0317 8.50616 16.9147 9.10108 17.657 9.85014C19.1571 11.3504 19.9998 13.3851 19.9998 15.5066C19.9998 17.6282 19.1571 19.6629 17.657 21.1631L14.245 24.5001H19C20.3256 24.4986 21.5964 23.9713 22.5338 23.0339C23.4711 22.0966 23.9984 20.8257 24 19.5001V10.2241C24.0004 9.40597 23.8001 8.6002 23.4165 7.87752C23.0329 7.15483 22.4779 6.53732 21.8 6.07914Z" fill="#B8B8B8"/>
</g>
<defs>
<clipPath id="clip0_176_647">
<rect width="24" height="24" fill="white" transform="translate(0 0.5)"/>
</clipPath>
</defs>
</svg>
