<svg width="24" height="25" viewBox="0 0 24 25" fill="none" xmlns="http://www.w3.org/2000/svg">
<g clip-path="url(#clip0_176_58)">
<path d="M11.9996 0.54248C9.3535 0.545392 6.81663 1.59776 4.94549 3.46871C3.07435 5.33966 2.02173 7.87642 2.01855 10.5225C2.01855 13.0925 4.00855 17.1145 7.93355 22.4765C8.40081 23.1166 9.01261 23.6374 9.71916 23.9964C10.4257 24.3554 11.207 24.5425 11.9996 24.5425C12.7921 24.5425 13.5734 24.3554 14.28 23.9964C14.9865 23.6374 15.5983 23.1166 16.0656 22.4765C19.9906 17.1145 21.9806 13.0925 21.9806 10.5225C21.9774 7.87642 20.9248 5.33966 19.0536 3.46871C17.1825 1.59776 14.6456 0.545392 11.9996 0.54248ZM11.9996 14.5005C11.2084 14.5005 10.4351 14.2659 9.77727 13.8264C9.11948 13.3868 8.60679 12.7621 8.30404 12.0312C8.00129 11.3003 7.92207 10.496 8.07641 9.72012C8.23075 8.9442 8.61172 8.23146 9.17113 7.67205C9.73054 7.11264 10.4433 6.73168 11.2192 6.57734C11.9951 6.423 12.7994 6.50221 13.5303 6.80496C14.2612 7.10771 14.8859 7.6204 15.3254 8.2782C15.765 8.936 15.9996 9.70936 15.9996 10.5005C15.9996 11.5613 15.5781 12.5788 14.828 13.3289C14.0778 14.0791 13.0604 14.5005 11.9996 14.5005Z" fill="#B8B8B8"/>
</g>
<defs>
<clipPath id="clip0_176_58">
<rect width="24" height="24" fill="white" transform="translate(0 0.5)"/>
</clipPath>
</defs>
</svg>
