<svg width="20" height="18" viewBox="0 0 20 18" fill="none" xmlns="http://www.w3.org/2000/svg">
<path fill-rule="evenodd" clip-rule="evenodd" d="M19.0276 1.97264L11.5544 9.44672C11.0933 9.90598 10.469 10.1638 9.81819 10.1638C9.1674 10.1638 8.54312 9.90598 8.08201 9.44672L0.608742 1.97264C0.97077 1.37235 1.48138 0.875485 2.09131 0.529961C2.70124 0.184437 3.38992 0.00191509 4.09092 0H15.5455C16.2465 0.00191509 16.9351 0.184437 17.5451 0.529961C18.155 0.875485 18.6656 1.37235 19.0276 1.97264ZM12.7113 10.6036L19.5987 3.71619C19.603 3.76421 19.6093 3.81054 19.6155 3.85639C19.626 3.93397 19.6364 4.01018 19.6364 4.09091V13.9091C19.6351 14.9937 19.2036 16.0335 18.4367 16.8004C17.6698 17.5673 16.63 17.9987 15.5454 18H4.09091C3.00633 17.9987 1.96655 17.5673 1.19963 16.8004C0.432721 16.0335 0.00129916 14.9937 0 13.9091V4.09091C0 4.01018 0.010343 3.93396 0.0208714 3.85639C0.027094 3.81054 0.0333813 3.76421 0.0376364 3.71619L6.92509 10.6036C7.69306 11.3697 8.73348 11.7999 9.81818 11.7999C10.9029 11.7999 11.9433 11.3697 12.7113 10.6036Z" fill="#B8B8B8"/>
</svg>
