<svg width="24" height="25" viewBox="0 0 24 25" fill="none" xmlns="http://www.w3.org/2000/svg">
<g clip-path="url(#clip0_176_193)">
<path d="M1.225 8.96712C1.331 8.84412 8.48 1.94912 8.48 1.94912C9.4223 1.02461 10.6905 0.507947 12.0106 0.510754C13.3307 0.51356 14.5966 1.03561 15.535 1.96412C15.535 1.96412 22.669 8.84412 22.774 8.96412L14.121 17.6181C13.5493 18.1631 12.7898 18.4671 12 18.4671C11.2102 18.4671 10.4507 18.1631 9.879 17.6181L1.225 8.96712ZM15.535 19.0361C14.5943 19.9676 13.3239 20.4902 12 20.4902C10.6761 20.4902 9.40572 19.9676 8.465 19.0361L0.229 10.8001C0.0852498 11.256 0.00811962 11.7302 0 12.2081L0 19.5001C0.00158786 20.8257 0.528882 22.0966 1.46622 23.0339C2.40356 23.9712 3.67441 24.4985 5 24.5001H19C20.3256 24.4985 21.5964 23.9712 22.5338 23.0339C23.4711 22.0966 23.9984 20.8257 24 19.5001V12.2081C23.9919 11.7302 23.9148 11.256 23.771 10.8001L15.535 19.0361Z" fill="#B8B8B8"/>
</g>
<defs>
<clipPath id="clip0_176_193">
<rect width="24" height="24" fill="white" transform="translate(0 0.5)"/>
</clipPath>
</defs>
</svg>
